<svg xmlns="http://www.w3.org/2000/svg" width="16" height="16" viewBox="0 0 4.233 4.233" id="anchor"><g fill="none" stroke-linecap="round" stroke-linejoin="round" stroke-width=".254"><path stroke="#000" d="m.809 3.424 2.286-2.286m.402-.02a.317.317 0 0 1-.381 0 .317.317 0 0 1 0-.382.268.268 0 0 1 .38 0 .268.268 0 0 1 0 .381zM3.01 3.275c-.614.381-1.376.297-1.863-.19C.66 2.599.576 1.837.957 1.223M.936 2.832c.084.127.105.296.063.402m.402.063c-.127-.084-.296-.105-.402-.063"></path><path stroke="#3ddcff" d="m2.396 1.265.572.572"></path><path stroke="#000" d="m1.041 1.117-.127.043-.127.042-.127.021m.487.296-.021-.127-.063-.275m2.053 2.075-.043.127-.042.127-.021.127m-.296-.487.127.021.148.042.127.021"></path></g></svg>