<svg width="793.7007874015749" height="1122.5196850393702" xmlns="http://www.w3.org/2000/svg" xmlns:svg="http://www.w3.org/2000/svg">
 <title>Boat Ramp</title>
 <metadata id="metadata18081">image/svg+xmlPublic Domainclker.comMohamed IbrahimMap Symbolsmap symbols</metadata>
 <defs>
  <pattern height="100" width="100" y="0" x="0" patternUnits="userSpaceOnUse" id="gridpattern">
   <image height="100" width="100" y="0" x="0" id="svg_1"/>
  </pattern>
 </defs>
 <g>
  <title>Layer 1</title>
  <path fill="#231f20" fill-rule="nonzero" id="path8268" d="m643.21997,837.58899c47.01703,0 85.03302,-38.08801 85.03302,-85.03198l0,-541.515c0,-47.01702 -38.01599,-85.10501 -85.03302,-85.10501l-541.51497,0c-47.0159,0 -85.1041,38.08799 -85.1041,85.10501l0,541.515c0,46.94397 38.0882,85.03198 85.1041,85.03198l541.51497,0z"/>
  <path fill="#007fff" fill-rule="nonzero" id="path8270" d="m101.705,140.409c-39.0239,0 -70.704,31.68 -70.704,70.63301l0,541.515c0,38.95196 31.6801,70.63202 70.704,70.63202l541.51497,0c38.953,0 70.63306,-31.68006 70.63306,-70.63202l0,-541.515c0,-38.953 -31.68006,-70.63301 -70.63306,-70.63301l-541.51497,0z"/>
  <path fill="#ffffff" fill-rule="nonzero" id="path8272" d="m172.84177,269.21802l119.80865,32.61618l66.52838,-46.15225l23.11212,5.54403l-65.88037,46.29624l363.09806,99.57657l-26.56818,97.48852l-364.39401,-99.36053c-141.1928,-41.97623 -115.48865,-136.08075 -115.48865,-136.08075"/>
  <path fill="#ffffff" fill-rule="nonzero" id="path8274" d="m487.772,518.55499c-0.432,-8.20801 -1.944,-15.91198 -4.608,-23.328l164.30402,45.79303l-5.25605,20.15997l-154.43997,-42.625z"/>
  <path fill="#ffffff" fill-rule="nonzero" id="path8276" d="m338.58701,477.29901c4.39199,-6.40802 9.72,-12.31201 15.69598,-17.28l-274.10569,-75.67203l0,21.74402l258.40971,71.20801z"/>
  <path fill="#ffffff" fill-rule="nonzero" id="path8278" d="m673.89258,713.10046c-13.03211,0 -25.34418,-2.95202 -36.43225,-7.99206c-11.44806,-5.25598 -24.2641,-8.35205 -37.65619,-8.35205c-13.39209,0 -26.20813,3.09607 -37.58423,8.35205c-11.16004,5.04004 -23.54413,7.99206 -36.57617,7.99206c-12.96009,0 -25.34415,-2.95202 -36.50421,-7.99206c-11.44806,-5.25598 -24.19214,-8.35205 -37.5842,-8.35205c-13.39209,0 -26.20816,3.09607 -37.65622,8.35205c-11.08808,5.04004 -23.54413,7.99206 -36.50421,7.99206c-12.96005,0 -25.41614,-2.95202 -36.50418,-7.99206c-11.44806,-5.25598 -24.33615,-8.35205 -37.65622,-8.35205c-13.39209,0 -26.28015,3.09607 -37.58423,8.35205c-11.08804,5.0401 -23.61612,7.99212 -36.57619,7.99212c-12.88808,0 -25.34415,-2.95202 -36.50421,-7.99206c-11.37605,-5.25604 -24.19212,-8.35205 -37.5842,-8.35205c-13.32008,0 -26.20814,3.09601 -37.58421,8.35205c-11.16006,5.04004 -23.68813,7.992 -36.50421,7.992l-0.86401,-217.65722l299.7377,82.65649c-20.66413,-10.00806 -34.99222,-30.9602 -34.99222,-55.36835c0,-33.98416 27.57617,-61.5603 61.56036,-61.5603c33.98416,0 61.63233,27.57614 61.63233,61.5603c0,33.9842 -27.64814,61.63239 -61.63233,61.63239c-2.01602,0 -4.03204,-0.43201 -6.04806,-0.64801l273.16955,75.31238l0.43201,54.07232zm-267.5535,-163.72888c14.76007,0 26.71213,-11.88006 26.71213,-26.64013c0,-14.76011 -11.95206,-26.71216 -26.71213,-26.71216c-14.7601,0 -26.71216,11.95205 -26.71216,26.71216c0,14.76007 11.95206,26.64013 26.71216,26.64013"/>
 </g>
</svg>