<svg xmlns="http://www.w3.org/2000/svg" width="16" height="16" viewBox="0 0 4.233 4.233" id="boat"><path fill="#3ddcff" d="M2.514 2.116a.397.397 0 0 1-.397.397.397.397 0 0 1-.397-.397.397.397 0 0 1 .397-.397.397.397 0 0 1 .397.397z"></path><path fill="none" stroke="#000" stroke-width=".265" d="M3.043 2.116a.926.926 0 0 1-.926.926.926.926 0 0 1-.926-.926.926.926 0 0 1 .926-.926.926.926 0 0 1 .926.926z"></path><path fill="none" stroke="#000" stroke-width=".265" d="M2.514 2.116a.397.397 0 0 1-.397.397.397.397 0 0 1-.397-.397.397.397 0 0 1 .397-.397.397.397 0 0 1 .397.397z"></path><path fill="none" stroke="#000" stroke-linecap="round" stroke-width=".265" d="M2.117 1.72V.397m0 3.436v-1.32m.397-.398h1.32m-3.435 0h1.32m1.051-.653.561-.561m-2.43 2.43.562-.562m1.307 0 .561.561M.901.901l.562.562"></path><path fill="none" stroke="#000" stroke-linecap="round" stroke-linejoin="round" stroke-width=".265" d="M1.986.661h.265m-.265 2.91h.265m1.323-1.587v.265m-2.91-.265v.265M3.053.994l.187.187M.996 3.05l.187.188m2.058-.187-.187.187M1.184.994l-.188.187"></path></svg>