<svg xmlns="http://www.w3.org/2000/svg" width="16" height="16" viewBox="0 0 4.233 4.233" id="crab"><path fill="#3ddcff" d="M2.378 2.116c.369 0 .665.297.665.665v.258a.664.664 0 0 1-.665.665h.4a.664.664 0 0 0 .666-.665V2.78a.664.664 0 0 0-.665-.665z"></path><path fill="none" stroke="#000" stroke-linecap="round" stroke-linejoin="round" stroke-width=".265" d="M1.46 2.116h1.319c.368 0 .665.297.665.665v.257a.664.664 0 01-.665.666h-1.32a.664.664 0 01-.665-.666v-.257c0-.368.297-.665.666-.665zM1.588.793a.53.53 0 01-.327.49.53.53 0 01-.576-.115A.53.53 0 01.57.59.53.53 0 011.06.264v.53zM2.647.793a.53.53 0 00.326.49.53.53 0 00.577-.115.53.53 0 00.115-.577.53.53 0 00-.49-.327v.53zM.265 3.193a.924.924 0 01.53-.273"></path><path fill="#fff" stroke="#000" stroke-linecap="round" stroke-linejoin="round" stroke-width=".265" d="M1.853 1.984a.265.265 0 0 1-.265.265.265.265 0 0 1-.264-.265.265.265 0 0 1 .264-.265.265.265 0 0 1 .265.265zm1.058 0a.265.265 0 0 1-.265.265.265.265 0 0 1-.264-.265.265.265 0 0 1 .264-.265.265.265 0 0 1 .265.265z"></path><path fill="none" stroke="#000" stroke-linecap="round" stroke-linejoin="round" stroke-width=".265" d="M.785 2.596a.794.794 0 0 1-.517-.677.794.794 0 0 1 .394-.755M3.45 2.596a.794.794 0 0 0 .517-.677.794.794 0 0 0-.394-.755M.53 3.966a.68.68 0 0 1 .411-.489M3.7 3.966A.687.687 90 0 0 3.3 3.48m.667-.286a.924.924 90 0 0-.51-.27"></path></svg>