<svg xmlns="http://www.w3.org/2000/svg" width="16" height="16" viewBox="0 0 4.233 4.233" id="diving"><path d="M1.313 293.56a.132.132 0 0 0 .011.264h.662c.15 0 .264.117.264.266v1.588a.133.133 0 1 0 .266 0v-1.588c0-.291-.239-.53-.53-.53h-.662a.132.132 0 0 0-.012 0z" style="line-height:normal;font-variant-ligatures:normal;font-variant-position:normal;font-variant-caps:normal;font-variant-numeric:normal;font-variant-alternates:normal;font-feature-settings:normal;text-indent:0;text-align:start;text-decoration-line:none;text-decoration-style:solid;text-decoration-color:#000;text-transform:none;text-orientation:mixed;white-space:normal;shape-padding:0;isolation:auto;mix-blend-mode:normal;solid-color:#000;solid-opacity:1" color="#000" enable-background="accumulate" font-family="sans-serif" font-weight="400" overflow="visible" transform="translate(0 -292.767)"></path><path d="M1.326 293.824c-.36 0-.66.279-.66.63v1.653c0 .351.3.63.66.63.36 0 .662-.279.662-.63v-1.654c0-.35-.302-.629-.662-.629zm0 .266c.227 0 .397.164.397.363v1.654c0 .2-.17.364-.397.364-.226 0-.396-.164-.396-.364v-1.654c0-.199.17-.363.396-.363z" style="line-height:normal;font-variant-ligatures:normal;font-variant-position:normal;font-variant-caps:normal;font-variant-numeric:normal;font-variant-alternates:normal;font-feature-settings:normal;text-indent:0;text-align:start;text-decoration-line:none;text-decoration-style:solid;text-decoration-color:#000;text-transform:none;text-orientation:mixed;white-space:normal;shape-padding:0;isolation:auto;mix-blend-mode:normal;solid-color:#000;solid-opacity:1" color="#000" enable-background="accumulate" font-family="sans-serif" font-weight="400" overflow="visible" transform="translate(0 -292.767)"></path><path d="M1.31 293.162a.132.132 0 0 0-.115.133v.53a.132.132 0 1 0 .264 0v-.53a.132.132 0 0 0-.148-.133z" style="line-height:normal;font-variant-ligatures:normal;font-variant-position:normal;font-variant-caps:normal;font-variant-numeric:normal;font-variant-alternates:normal;font-feature-settings:normal;text-indent:0;text-align:start;text-decoration-line:none;text-decoration-style:solid;text-decoration-color:#000;text-transform:none;text-orientation:mixed;white-space:normal;shape-padding:0;isolation:auto;mix-blend-mode:normal;solid-color:#000;solid-opacity:1" color="#000" enable-background="accumulate" font-family="sans-serif" font-weight="400" overflow="visible" transform="translate(0 -292.767)"></path><path d="M.783 294.62a.13.132 0 0 0 .012.263h1.042a.13.132 0 1 0 0-.264H.795a.13.132 0 0 0-.012 0zM.772 295.678a.118.132 0 0 0 .01.263h.943a.118.132 0 1 0 0-.263H.783a.118.132 0 0 0-.01 0zM1.049 293.031a.132.132 0 0 0 .014.264h.529a.132.132 0 1 0 0-.264h-.53a.132.132 0 0 0-.013 0z" style="line-height:normal;font-variant-ligatures:normal;font-variant-position:normal;font-variant-caps:normal;font-variant-numeric:normal;font-variant-alternates:normal;font-feature-settings:normal;text-indent:0;text-align:start;text-decoration-line:none;text-decoration-style:solid;text-decoration-color:#000;text-transform:none;text-orientation:mixed;white-space:normal;shape-padding:0;isolation:auto;mix-blend-mode:normal;solid-color:#000;solid-opacity:1" color="#000" enable-background="accumulate" font-family="sans-serif" font-weight="400" overflow="visible" transform="translate(0 -292.767)"></path><path fill="#3ddcff" d="M1.457 293.825a.265.265 0 0 1-.264.265.265.265 0 0 1-.265-.265.265.265 0 0 1 .265-.265.265.265 0 0 1 .264.265z" transform="translate(0 -292.767)"></path><path d="M2.367 294.75a.132.132 0 0 0-.117.133v1.324c0 .29.238.53.53.53.29 0 .529-.24.529-.53v-1.324a.132.132 0 1 0-.264 0v1.324a.261.261 0 0 1-.266.264.26.26 0 0 1-.263-.264v-1.324a.132.132 0 0 0-.149-.133Z" style="line-height:normal;font-variant-ligatures:normal;font-variant-position:normal;font-variant-caps:normal;font-variant-numeric:normal;font-variant-alternates:normal;font-feature-settings:normal;text-indent:0;text-align:start;text-decoration-line:none;text-decoration-style:solid;text-decoration-color:#000;text-transform:none;text-orientation:mixed;white-space:normal;shape-padding:0;isolation:auto;mix-blend-mode:normal;solid-color:#000;solid-opacity:1" color="#000" enable-background="accumulate" font-family="sans-serif" font-weight="400" overflow="visible" transform="translate(0 -292.767)"></path><path d="M2.896 294.486a.133.133 0 0 0 .014.266h.53a.133.133 0 1 0 0-.266h-.53a.132.132 0 0 0-.014 0z" style="line-height:normal;font-variant-ligatures:normal;font-variant-position:normal;font-variant-caps:normal;font-variant-numeric:normal;font-variant-alternates:normal;font-feature-settings:normal;text-indent:0;text-align:start;text-decoration-line:none;text-decoration-style:solid;text-decoration-color:#000;text-transform:none;text-orientation:mixed;white-space:normal;shape-padding:0;isolation:auto;mix-blend-mode:normal;solid-color:#000;solid-opacity:1" color="#000" enable-background="accumulate" font-family="sans-serif" font-weight="400" overflow="visible" transform="translate(0 -292.767)"></path><path fill="#3ddcff" d="M3.44 294.619a.265.265 0 0 1-.265.264.265.265 0 0 1-.265-.264.265.265 0 0 1 .265-.265.265.265 0 0 1 .265.265z" transform="translate(0 -292.767)"></path></svg>