<svg xmlns="http://www.w3.org/2000/svg" width="16" height="16" viewBox="0 0 4.233 4.233" id="diving"><path style="line-height:normal;font-variant-ligatures:normal;font-variant-position:normal;font-variant-caps:normal;font-variant-numeric:normal;font-variant-alternates:normal;font-feature-settings:normal;text-indent:0;text-align:start;text-decoration-line:none;text-decoration-style:solid;text-decoration-color:#000;text-transform:none;text-orientation:mixed;white-space:normal;shape-padding:0;isolation:auto;mix-blend-mode:normal;solid-color:#000;solid-opacity:1" d="M.793 293.836c-.34 0-.656.262-.656.615v1.65c0 .354.31.635.656.635a.648.648 0 0 0 .656-.634v-1.65c0-.348-.3-.616-.656-.616zm0 .254c.236 0 .402.158.402.361v1.65c0 .204-.172.381-.402.381-.204 0-.402-.183-.402-.38v-1.65c0-.198.192-.362.402-.362z" color="#000" font-family="sans-serif" font-weight="400" overflow="visible" transform="translate(0 -292.767)"></path><path style="line-height:normal;font-variant-ligatures:normal;font-variant-position:normal;font-variant-caps:normal;font-variant-numeric:normal;font-variant-alternates:normal;font-feature-settings:normal;text-indent:0;text-align:start;text-decoration-line:none;text-decoration-style:solid;text-decoration-color:#000;text-transform:none;text-orientation:mixed;white-space:normal;shape-padding:0;isolation:auto;mix-blend-mode:normal;solid-color:#000;solid-opacity:1" d="M.791 293.432a.127.127 0 0 0-.125.129v.275a.127.127 0 1 0 .254 0v-.275a.127.127 0 0 0-.129-.13zm1.588 0a.127.127 0 0 0-.125.129v.275a.127.127 0 1 0 .254 0v-.275a.127.127 0 0 0-.13-.13zm-2.127 1.187a.127.127 0 0 0 .012.254h1.058a.127.127 0 1 0 0-.254H.264a.127.127 0 0 0-.012 0zm0 1.059a.127.127 0 0 0 .012.254h1.058a.127.127 0 1 0 0-.254H.264a.127.127 0 0 0-.012 0z" color="#000" font-family="sans-serif" font-weight="400" overflow="visible" transform="translate(0 -292.767)"></path><path style="line-height:normal;font-variant-ligatures:normal;font-variant-position:normal;font-variant-caps:normal;font-variant-numeric:normal;font-variant-alternates:normal;font-feature-settings:normal;text-indent:0;text-align:start;text-decoration-line:none;text-decoration-style:solid;text-decoration-color:#000;text-transform:none;text-orientation:mixed;white-space:normal;shape-padding:0;isolation:auto;mix-blend-mode:normal;solid-color:#000;solid-opacity:1" d="M2.38 293.836c-.34 0-.655.262-.655.615v1.65c0 .354.31.635.656.635a.648.648 0 0 0 .656-.634v-1.65c0-.348-.3-.616-.656-.616zm0 .254c.237 0 .403.158.403.361v1.65c0 .204-.172.381-.402.381-.204 0-.402-.183-.402-.38v-1.65c0-.198.192-.362.402-.362z" color="#000" font-family="sans-serif" font-weight="400" overflow="visible" transform="translate(0 -292.767)"></path><path style="line-height:normal;font-variant-ligatures:normal;font-variant-position:normal;font-variant-caps:normal;font-variant-numeric:normal;font-variant-alternates:normal;font-feature-settings:normal;text-indent:0;text-align:start;text-decoration-line:none;text-decoration-style:solid;text-decoration-color:#000;text-transform:none;text-orientation:mixed;white-space:normal;shape-padding:0;isolation:auto;mix-blend-mode:normal;solid-color:#000;solid-opacity:1" d="M1.84 294.62a.127.127 0 0 0 .012.253H2.91a.127.127 0 1 0 0-.254H1.852a.127.127 0 0 0-.012 0zm0 1.058a.127.127 0 0 0 .012.254H2.91a.127.127 0 1 0 0-.254H1.852a.127.127 0 0 0-.012 0zM.25 293.03a.127.127 0 0 0-.113.127v.276a.127.127 0 1 0 .254 0v-.276a.127.127 0 0 0-.141-.127zm1.059 0a.127.127 0 0 0-.114.127v.276a.127.127 0 1 0 .254 0v-.276a.127.127 0 0 0-.14-.127z" color="#000" font-family="sans-serif" font-weight="400" overflow="visible" transform="translate(0 -292.767)"></path><path style="line-height:normal;font-variant-ligatures:normal;font-variant-position:normal;font-variant-caps:normal;font-variant-numeric:normal;font-variant-alternates:normal;font-feature-settings:normal;text-indent:0;text-align:start;text-decoration-line:none;text-decoration-style:solid;text-decoration-color:#000;text-transform:none;text-orientation:mixed;white-space:normal;shape-padding:0;isolation:auto;mix-blend-mode:normal;solid-color:#000;solid-opacity:1" d="M.264 293.18a.127.127 0 1 0 0 .254h1.058a.127.127 0 1 0 0-.254z" color="#000" font-family="sans-serif" font-weight="400" overflow="visible" transform="translate(0 -292.767)"></path><path fill="#3ddcff" d="M1.069.54c0 .148-.127.254-.275.254A.245.245 0 0 1 .54.54C.54.392.646.265.794.265a.28.28 0 0 1 .275.275z"></path><path style="line-height:normal;font-variant-ligatures:normal;font-variant-position:normal;font-variant-caps:normal;font-variant-numeric:normal;font-variant-alternates:normal;font-feature-settings:normal;text-indent:0;text-align:start;text-decoration-line:none;text-decoration-style:solid;text-decoration-color:#000;text-transform:none;text-orientation:mixed;white-space:normal;shape-padding:0;isolation:auto;mix-blend-mode:normal;solid-color:#000;solid-opacity:1" d="M1.459 294.895a.127.127 0 0 0 .012.253h.254a.127.127 0 1 0 0-.253H1.47a.127.127 0 0 0-.012 0zm0 .529a.127.127 0 0 0 .012.254h.254a.127.127 0 1 0 0-.254H1.47a.127.127 0 0 0-.012 0zm.379-2.393a.127.127 0 0 0-.113.127v.276a.127.127 0 1 0 .254 0v-.276a.127.127 0 0 0-.141-.127zm1.058 0a.127.127 0 0 0-.113.127v.276a.127.127 0 1 0 .254 0v-.276a.127.127 0 0 0-.14-.127z" color="#000" font-family="sans-serif" font-weight="400" overflow="visible" transform="translate(0 -292.767)"></path><path style="line-height:normal;font-variant-ligatures:normal;font-variant-position:normal;font-variant-caps:normal;font-variant-numeric:normal;font-variant-alternates:normal;font-feature-settings:normal;text-indent:0;text-align:start;text-decoration-line:none;text-decoration-style:solid;text-decoration-color:#000;text-transform:none;text-orientation:mixed;white-space:normal;shape-padding:0;isolation:auto;mix-blend-mode:normal;solid-color:#000;solid-opacity:1" d="M1.852 293.18a.127.127 0 1 0 0 .254H2.91a.127.127 0 1 0 0-.254z" color="#000" font-family="sans-serif" font-weight="400" overflow="visible" transform="translate(0 -292.767)"></path><path fill="#3ddcff" d="M2.656.54c0 .148-.127.254-.275.254A.245.245 0 0 1 2.127.54c0-.148.106-.275.254-.275a.28.28 0 0 1 .275.275z"></path><path style="line-height:normal;font-variant-ligatures:normal;font-variant-position:normal;font-variant-caps:normal;font-variant-numeric:normal;font-variant-alternates:normal;font-feature-settings:normal;text-indent:0;text-align:start;text-decoration-line:none;text-decoration-style:solid;text-decoration-color:#000;text-transform:none;text-orientation:mixed;white-space:normal;shape-padding:0;isolation:auto;mix-blend-mode:normal;solid-color:#000;solid-opacity:1" d="M.793 293.836a.127.127 0 1 0 0 .254h2.52c.143 0 .275.112.275.275v1.588a.127.127 0 1 0 .254 0v-1.588c0-.302-.25-.53-.53-.53z" color="#000" font-family="sans-serif" font-weight="400" overflow="visible" transform="translate(0 -292.767)"></path><path style="line-height:normal;font-variant-ligatures:normal;font-variant-position:normal;font-variant-caps:normal;font-variant-numeric:normal;font-variant-alternates:normal;font-feature-settings:normal;text-indent:0;text-align:start;text-decoration-line:none;text-decoration-style:solid;text-decoration-color:#000;text-transform:none;text-orientation:mixed;white-space:normal;shape-padding:0;isolation:auto;mix-blend-mode:normal;solid-color:#000;solid-opacity:1" d="M3.428 295.826a.127.127 0 0 0 .011.254h.53a.127.127 0 1 0 0-.254h-.53a.127.127 0 0 0-.011 0z" color="#000" font-family="sans-serif" font-weight="400" overflow="visible" transform="translate(0 -292.767)"></path><path fill="#3ddcff" d="M3.969 3.186a.245.245 0 0 1-.254.254c-.148 0-.275-.106-.275-.254a.28.28 0 0 1 .275-.275c.148 0 .254.127.254.275z"></path></svg>