<svg xmlns="http://www.w3.org/2000/svg" width="16" height="16" viewBox="0 0 4.233 4.233" id="life"><path fill="#3ddcff" d="M2.136.264a1.852 1.852 0 0 0-.548.077l.34 1.14a.663.663 0 0 1 .189-.027.663.663 0 0 1 .189.028l.34-1.14a1.852 1.852 0 0 0-.51-.078zm-.208 2.487-.34 1.14a1.852 1.852 0 0 0 1.057 0l-.34-1.14a.663.663 0 0 1-.188.028.663.663 0 0 1-.19-.028zm1.964-1.163-1.14.34a.663.663 0 0 1 .027.188.663.663 0 0 1-.028.19l1.14.339a1.852 1.852 0 0 0 0-1.057zm-3.55 0a1.852 1.852 0 0 0 0 1.057l1.14-.34a.663.663 0 0 1-.028-.189.663.663 0 0 1 .028-.189z"></path><path fill="none" stroke="#000" stroke-width=".265" d="M3.836 2.116a1.72 1.72 0 0 1-1.72 1.72 1.72 1.72 0 0 1-1.72-1.72 1.72 1.72 0 0 1 1.72-1.72 1.72 1.72 0 0 1 1.72 1.72z"></path><path fill="none" stroke="#000" stroke-width=".265" d="M2.78 2.116a.663.663 0 0 1-.663.663.663.663 0 0 1-.663-.663.663.663 0 0 1 .663-.662.663.663 0 0 1 .662.662Z"></path></svg>