<svg xmlns="http://www.w3.org/2000/svg" width="16" height="16" viewBox="0 0 4.233 4.233" id="scuba"><path fill="#3ddcff" d="M.53 294.631v.442c0 .409.327.737.734.737h.147c.448-.673.426-.609.882 0h.147a.734.734 0 0 0 .735-.737v-.442a.734.734 0 0 1-.735.737H1.264a.734.734 0 0 1-.735-.737z" transform="translate(0 -292.767)"></path><path fill="none" stroke="#000" stroke-linecap="round" stroke-linejoin="round" stroke-width=".265" d="M1.264 293.747a.734.734 0 0 0-.735.737v.59c0 .408.328.736.735.736h.147l.441-.59.441.59h.147a.734.734 0 0 0 .735-.737v-.59a.734.734 0 0 0-.735-.736z" transform="translate(0 -292.767)"></path><path fill="none" stroke="#000" stroke-width=".265" d="M.53 294.336h2.645" transform="translate(0 -292.767)"></path><path fill="none" stroke="#000" stroke-linecap="round" stroke-linejoin="round" stroke-width=".265" d="M3.704 293.164v2.779a.66.66 0 0 1-.661.661h-.53a.66.66 0 0 1-.66-.661" transform="translate(0 -292.767)"></path></svg>