<svg xmlns="http://www.w3.org/2000/svg" width="16" height="16" viewBox="0 0 4.233 4.233" id="scuba"><path fill="none" stroke="#000" stroke-linecap="round" stroke-linejoin="round" stroke-width=".265" d="M.91 3.17.662.695m1.24 0L1.654 3.17M1.282.695a.31.31 0 0 1-.62 0"></path><path fill="#3ddcff" d="M1.282 2.799c.138 0 .248.118.248.264v.214c0 .146-.11.264-.248.264-.137 0-.248-.118-.248-.264v-.214c0-.146.11-.264.248-.264z"></path><path fill="none" stroke="#000" stroke-linecap="round" stroke-linejoin="round" stroke-width=".265" d="M1.654 3.17a.372.371 0 0 1-.186.322.372.371 0 0 1-.372 0A.372.371 0 0 1 .91 3.17M1.282.695V2.18m.62-1.485a.31.31 0 0 1-.62 0"></path><path fill="#3ddcff" d="M2.951 2.799c.137 0 .248.118.248.264v.214c0 .146-.11.264-.248.264-.137 0-.248-.118-.248-.264v-.214c0-.146.11-.264.248-.264z"></path><path fill="none" stroke="#000" stroke-linecap="round" stroke-linejoin="round" stroke-width=".265" d="M2.58 3.17L2.33.695m1.24 0L3.323 3.17m0 0a.372.371 0 01-.186.322.372.371 0 01-.372 0 .372.371 0 01-.186-.322M2.951.695V2.18m0-1.485a.31.31 0 01-.62 0M3.57.695a.31.31 0 01-.619 0"></path></svg>