<svg xmlns="http://www.w3.org/2000/svg" width="16" height="16" viewBox="0 0 4.233 4.233" id="sunset"><path fill="#3ddcff" d="M2.138 1.98c-.085 0-.17.022-.254.043.17.042.317.127.423.233.36.36.36.931.021 1.29l.445.022a.933.933 0 0 0 0-1.312 1.02 1.02 0 0 0-.635-.275z"></path><path fill="none" stroke="#000" stroke-linecap="round" stroke-linejoin="round" stroke-width=".254" d="M2.117 1.451V.922m-1.715.995.445.275m2.984-.275-.444.275M.127 3.42a.608.608 0 0 0 .381.148.578.578 0 0 0 .402-.17c.106.107.254.17.402.17a.578.578 0 0 0 .403-.17c.105.107.254.17.402.17a.578.578 0 0 0 .402-.17c.106.107.254.17.402.17a.578.578 0 0 0 .402-.17c.106.107.254.17.402.17a.609.609 0 0 0 .381-.148"></path><path fill="none" stroke="#000" stroke-linecap="round" stroke-linejoin="round" stroke-width=".254" d="M1.46 3.547a.907.907 0 0 1 0-1.291c.382-.36.953-.36 1.313 0s.36.952 0 1.312m.804-.656h.254m-3.429 0h.254m2.18-1.249.148-.233m-1.735 0 .148.233"></path></svg>