<svg xmlns="http://www.w3.org/2000/svg" width="16" height="16" viewBox="0 0 4.233 4.233" id="whale"><path fill="#3ddcff" d="M2.931.857c.149.254.254.55.254.868 0 .72-.508 1.333-1.206 1.524v.465c.889 0 1.587-.72 1.587-1.587 0-.487-.232-.974-.635-1.27zM.645 2.995c.212.296.508.529.847.635-.021-.064-.042-.127-.042-.19v-.15a1.623 1.623 0 0 1-.805-.295z"></path><path fill="none" stroke="#000" stroke-linecap="round" stroke-linejoin="round" stroke-width=".254" d="M3.037 1.09v.508c0 .296-.233.529-.529.529H.391"></path><path fill="none" stroke="#000" stroke-linecap="round" stroke-linejoin="round" stroke-width=".254" d="M3.207 1.11c.38.466.486 1.123.211 1.694a1.57 1.57 0 0 1-1.44.91m0 .254a.524.524 0 0 1-.528-.529v-.53m0 .72A1.598 1.598 0 0 1 .39 2.128m1.588.783v1.058M3.842.264v.402c0 .212-.191.402-.403.402h-.783a.402.402 0 0 1-.402-.402V.264"></path><path fill="none" stroke="#000" stroke-linecap="round" stroke-linejoin="round" stroke-width=".254" d="M2.254.264h.53c.147 0 .253.127.253.275M3.037.54a.28.28 0 0 1 .275-.276h.53"></path><path d="M1.069 2.656c0 .063-.064.127-.148.127a.137.137 0 0 1-.127-.127c0-.085.063-.127.127-.127.084 0 .148.042.148.127z"></path></svg>