<svg xmlns="http://www.w3.org/2000/svg" width="16" height="16" viewBox="0 0 4.233 4.233" id="octopus"><path fill="#3ddcff" d="M2.116.395a.931.931 0 0 0-.198.024.92.92 0 0 1 .603 1.365l-.034.066a.794.794 0 0 0 .43 1.146h.398a.79.79 0 0 1-.431-1.146l.034-.066A.926.926 0 0 0 2.116.395zm1.322 2.6c-.022.009-.045.013-.068.019.15.04.311.036.464-.018zM.52 2.997c-.018.006-.036.013-.055.018a.79.79 0 0 0 .452-.018z"></path><path fill="none" stroke="#000" stroke-linecap="round" stroke-linejoin="round" stroke-width=".265" d="M3.835 2.996a.794.794 0 0 1-.951-1.146l.034-.066a.926.926 0 1 0-1.604 0l.034.066a.794.794 0 0 1-.95 1.146m1.409-.087A1.323 1.323 0 0 1 .66 3.57m2.91 0a1.323 1.323 0 0 1-1.145-.661m-.304.477a1.852 1.852 0 0 1-.51.45"></path><path d="M1.852 1.189a.132.132 0 0 1-.133.132.132.132 0 0 1-.132-.132.132.132 0 0 1 .132-.132.132.132 0 0 1 .133.132zm.793 0a.132.132 0 0 1-.132.132.132.132 0 0 1-.132-.132.132.132 0 0 1 .132-.132.132.132 0 0 1 .132.132z"></path><path fill="none" stroke="#000" stroke-linecap="round" stroke-linejoin="round" stroke-width=".265" d="M1.982 1.718h.265"></path></svg>